HIERARCHY
ROOT Hips
{
	OFFSET	0.00	0.00	0.00
	CHANNELS 6 Xposition Yposition Zposition Zrotation Xrotation Yrotation
	JOINT LeftUpLeg
	{
		OFFSET	 0.126116	-0.014019	-0.065224
		CHANNELS 3 Zrotation Xrotation Yrotation
		JOINT LeftLeg
		{
			OFFSET	 0.000000	 0.000000	 0.569914
			CHANNELS 3 Zrotation Xrotation Yrotation
			JOINT LeftFoot
			{
				OFFSET	 0.000000	 0.000000	 0.544423
				CHANNELS 3 Zrotation Xrotation Yrotation
				JOINT LeftToeBase
				{
					OFFSET	 0.000000	 0.000000	 0.207117
					CHANNELS 3 Zrotation Xrotation Yrotation
					End Site
					{
						OFFSET	 0.000000	 0.000000	 0.207117
					}
				}
			}
		}
	}
	JOINT RightUpLeg
	{
		OFFSET	-0.124023	-0.008373	-0.065224
		CHANNELS 3 Zrotation Xrotation Yrotation
		JOINT RightLeg
		{
			OFFSET	 0.000000	 0.000000	 0.570047
			CHANNELS 3 Zrotation Xrotation Yrotation
			JOINT RightFoot
			{
				OFFSET	 0.000000	 0.000000	 0.544354
				CHANNELS 3 Zrotation Xrotation Yrotation
				JOINT RightToeBase
				{
					OFFSET	 0.000000	 0.000000	 0.207540
					CHANNELS 3 Zrotation Xrotation Yrotation
					End Site
					{
						OFFSET	 0.000000	 0.000000	 0.207540
					}
				}
			}
		}
	}
	JOINT Spine
	{
		OFFSET	 0.000184	-0.007763	 0.117403
		CHANNELS 3 Zrotation Xrotation Yrotation
		JOINT Spine1
		{
			OFFSET	 0.000000	 0.000000	 0.137269
			CHANNELS 3 Zrotation Xrotation Yrotation
			JOINT Spine2
			{
				OFFSET	 0.000000	 0.000000	 0.156879
				CHANNELS 3 Zrotation Xrotation Yrotation
				JOINT LeftShoulder
				{
					OFFSET	 0.080501	-0.002496	 0.160144
					CHANNELS 3 Zrotation Xrotation Yrotation
					JOINT LeftArm
					{
						OFFSET	 0.000000	 0.000000	 0.164363
						CHANNELS 3 Zrotation Xrotation Yrotation
						JOINT LeftForeArm
						{
							OFFSET	 0.000000	 0.000000	 0.364576
							CHANNELS 3 Zrotation Xrotation Yrotation
							JOINT LeftHand
							{
								OFFSET	 0.000000	 0.000000	 0.360812
								CHANNELS 3 Zrotation Xrotation Yrotation
								JOINT LeftHandIndex1
								{
									OFFSET	 0.000000	 0.000000	 0.086006
									CHANNELS 3 Zrotation Xrotation Yrotation
									JOINT LeftHandIndex2
									{
										OFFSET	 0.000000	 0.000000	 0.047236
										CHANNELS 3 Zrotation Xrotation Yrotation
										JOINT LeftHandIndex3
										{
											OFFSET	-0.004284	-0.000551	 0.038166
											CHANNELS 3 Zrotation Xrotation Yrotation
											End Site
											{
												OFFSET	-0.004284	-0.000551	 0.038166
											}
										}
									}
								}
							}
						}
					}
				}
				JOINT Neck
				{
					OFFSET	 0.000000	 0.000000	 0.176489
					CHANNELS 3 Zrotation Xrotation Yrotation
					JOINT Head
					{
						OFFSET	 0.000000	-0.001747	 0.077940
						CHANNELS 3 Zrotation Xrotation Yrotation
						End Site
						{
							OFFSET	 0.000000	-0.001747	 0.077940
						}
					}
				}
				JOINT RightShoulder
				{
					OFFSET	-0.080363	 0.000306	 0.159706
					CHANNELS 3 Zrotation Xrotation Yrotation
					JOINT RightArm
					{
						OFFSET	 0.000000	 0.000000	 0.164196
						CHANNELS 3 Zrotation Xrotation Yrotation
						JOINT RightForeArm
						{
							OFFSET	 0.000000	 0.000000	 0.365611
							CHANNELS 3 Zrotation Xrotation Yrotation
							JOINT RightHand
							{
								OFFSET	 0.000000	 0.000000	 0.360648
								CHANNELS 3 Zrotation Xrotation Yrotation
								JOINT RightHandIndex1
								{
									OFFSET	 0.000000	 0.000000	 0.069977
									CHANNELS 3 Zrotation Xrotation Yrotation
									JOINT RightHandIndex2
									{
										OFFSET	 0.000000	 0.000000	 0.052305
										CHANNELS 3 Zrotation Xrotation Yrotation
										JOINT RightHandIndex3
										{
											OFFSET	 0.009002	-0.000782	 0.042196
											CHANNELS 3 Zrotation Xrotation Yrotation
											End Site
											{
												OFFSET	 0.009002	-0.000782	 0.042196
											}
										}
									}
								}
							}
						}
					}
				}
			}
		}
	}
}
MOTION
Frames:    7
Frame Time: 0.03333334
 0.000287	 0.045075	 1.273786	-0.039280	 3.295136	 0.774436	 1.530432	-7.766246	 178.102100	 2.186711	-15.389230	 0.691283	 0.159502	 72.153370	-0.227653	-2.385833	 28.452750	 0.000004	 5.804923	-6.881570	-178.835100	-0.745432	-13.019310	 0.993278	 5.763555	 70.736590	 0.507280	 2.384659	 28.388700	-0.000001	 2.633892	 7.911145	-0.395754	 1.517780	-9.005338	 0.323945	-3.865596	 12.828050	 1.007130	-90.991210	 68.585460	-177.436100	-5.631678	-0.707471	-9.627616	 24.993080	-4.496471	-16.883760	-6.375800	-8.928190	-4.424524	-2.027600	 6.559038	 9.033609	-5.188889	 0.308190	 3.541030	-5.234859	 0.342567	 0.430617	 4.696418	 21.016560	-7.700207	-8.907987	-15.595550	 1.597322	 88.755750	 66.917950	 176.872400	 10.577200	 6.099579	 11.227240	-27.393380	-6.614652	 17.795280	 3.239873	-8.348942	 5.519094	 1.803333	 3.979147	-15.098590	 4.898592	 3.004813	-9.310344	 5.224449	 0.395017	 2.014677
 0.000031	 0.046741	 1.273144	 0.004032	 3.811279	 0.820642	 1.287581	-8.707786	 178.031500	 2.121452	-16.014760	 0.722185	 0.247216	 72.401200	-0.326959	-2.385833	 28.452750	 0.000004	 5.819757	-7.772650	-178.854200	-0.734119	-13.556290	 1.036150	 5.819583	 70.902500	 0.448980	 2.384659	 28.388700	-0.000001	 2.663407	 8.213203	-0.403424	 1.543150	-10.488300	 0.307787	-3.936058	 14.402290	 1.142375	-90.925190	 68.122990	-177.307200	-5.228448	-1.212396	-9.896173	 24.626030	-4.602715	-17.697890	-5.615650	-9.703976	-4.723456	-2.027600	 6.559038	 9.033609	-5.188889	 0.308190	 3.541030	-5.234859	 0.342567	 0.430617	 4.716459	 22.430170	-8.108149	-8.761700	-16.597720	 1.532489	 88.628610	 66.024090	 176.661500	 10.549790	 5.540167	 11.864740	-27.288240	-6.730150	 18.182780	 2.288948	-8.712992	 5.305612	 1.803333	 3.979147	-15.098590	 4.898592	 3.004813	-9.310344	 5.224449	 0.395017	 2.014677
-0.000966	 0.054714	 1.270960	 0.187802	 6.051988	 1.032716	 0.687469	-12.473140	 177.744000	 2.210284	-17.946780	 0.809927	 0.585431	 73.045510	-0.674972	-2.385832	 28.452790	-0.000001	 5.742196	-11.264340	-178.905000	-1.111787	-15.022540	 1.047352	 6.333217	 71.216310	 0.328729	 2.384659	 28.388700	-0.000001	 2.782668	 8.932240	-0.493037	 1.604870	-15.761120	 0.374633	-4.288002	 19.670290	 1.545011	-90.835180	 66.000140	-177.372900	-3.620465	-2.661291	-9.882317	 22.083180	-4.589350	-21.342240	-4.153036	-12.241850	-6.370786	-2.027600	 6.559038	 9.033609	-5.188889	 0.308190	 3.541030	-5.234859	 0.342567	 0.430617	 4.387612	 26.062700	-8.810647	-8.234865	-19.191590	 1.157746	 88.391980	 62.559200	 176.571600	 9.556068	 3.748074	 13.285430	-26.182830	-6.960753	 19.876950	-0.965597	-9.718151	 5.185941	 1.803333	 3.979147	-15.098590	 4.898592	 3.004813	-9.310344	 5.224449	 0.395017	 2.014677
-0.001400	 0.065356	 1.267847	 0.564161	 8.707837	 1.150977	-0.228826	-16.869210	 177.467600	 2.113392	-19.942100	 0.863382	 1.030665	 73.266720	-1.028370	-2.385833	 28.452760	 0.000004	 5.502779	-15.487930	-178.811300	-1.434517	-16.864330	 1.078190	 7.135948	 71.589900	-0.161372	 2.384659	 28.388700	-0.000001	 2.729104	 8.450122	-0.610609	 1.670234	-20.340730	 0.663600	-4.633451	 23.328090	 1.863901	-91.518570	 64.858250	-179.320100	-1.932729	-1.611902	-6.531227	 19.964840	-4.576444	-25.600600	-3.886915	-13.522090	-8.143748	-2.027600	 6.559038	 9.033609	-5.188889	 0.308190	 3.541030	-5.234859	 0.342567	 0.430617	 3.717375	 26.948440	-8.743628	-7.736839	-20.024910	 0.868328	 89.010290	 60.981580	 178.202700	 6.892607	 4.415545	 11.259940	-25.045650	-7.233791	 21.897560	-3.500705	-10.389120	 5.450466	 1.803333	 3.979147	-15.098590	 4.898592	 3.004813	-9.310344	 5.224449	 0.395017	 2.014677
-0.001762	 0.080038	 1.263154	 0.884413	 11.905390	 1.126438	-1.135795	-22.258050	 177.223800	 2.145574	-22.345570	 0.974649	 1.355408	 73.602020	-1.337544	-2.385832	 28.452790	-0.000001	 5.547796	-20.841180	-178.467400	-1.694551	-19.401200	 1.147836	 8.222996	 72.224670	-0.973436	 2.384659	 28.388700	-0.000001	 2.549318	 7.145357	-0.572495	 1.747839	-23.675920	 0.802836	-4.778643	 25.776110	 2.464875	-92.642590	 65.128960	 177.684000	-0.823697	 2.382528	-1.833887	 19.654910	-5.356921	-30.112410	-2.992574	-14.284440	-8.968563	-2.027600	 6.559038	 9.033609	-5.188889	 0.308190	 3.541030	-5.234859	 0.342567	 0.430617	 3.091627	 25.201420	-9.044981	-7.124963	-19.307180	 0.585077	 90.118520	 60.257470	-179.235100	 3.465778	 7.321093	 8.050811	-23.415050	-7.222994	 24.008390	-4.824936	-11.339010	 5.667155	 1.803333	 3.979147	-15.098590	 4.898592	 3.004813	-9.310344	 5.224449	 0.395017	 2.014677
-0.004036	 0.102749	 1.259048	 2.428274	 17.282660	 1.154704	-3.821081	-30.223280	 176.067900	 3.144968	-24.133210	 1.457722	-0.032670	 72.563920	-0.819588	-2.385833	 28.452750	 0.000004	 4.294803	-28.268930	-178.352800	-1.195839	-20.685020	 1.397351	 7.243693	 70.982540	-0.386475	 2.384659	 28.388700	-0.000001	 1.963543	 4.609077	-0.504748	 0.933273	-25.538490	 0.718828	-4.842903	 25.957250	 2.177331	-93.667950	 65.379720	 174.883900	 1.310302	 7.730784	 2.270273	 19.358780	-6.272041	-35.059900	-1.875993	-14.166270	-9.401427	-2.027600	 6.559038	 9.033609	-5.188889	 0.308190	 3.541030	-5.234859	 0.342567	 0.430617	 2.607710	 24.290970	-8.325608	-6.632192	-19.280090	 0.110194	 91.308270	 60.674400	-176.483200	-0.737904	 11.635390	 5.490077	-21.887120	-7.172553	 26.204030	-5.724688	-11.635850	 6.230763	 1.803333	 3.979147	-15.098590	 4.898592	 3.004813	-9.310344	 5.224449	 0.395017	 2.014677
-0.006776	 0.127242	 1.253889	 4.071827	 21.865950	 0.760368	-6.661474	-37.046920	 174.781400	 3.933524	-25.154550	 1.851962	-1.441666	 71.307760	-0.009571	-2.385833	 28.452750	 0.000004	 3.084687	-35.338610	-178.101400	-1.798735	-22.754870	 1.296051	 7.835617	 70.469690	-0.431302	 2.384659	 28.388700	-0.000001	 1.416756	 4.014048	-0.351714	-0.038654	-25.897760	 0.747043	-4.681925	 25.705800	 1.501783	-94.356510	 66.415790	 172.642300	 3.967723	 14.464180	 2.338924	 19.267210	-7.010203	-38.389840	-1.129831	-14.525060	-9.759218	-2.027600	 6.559038	 9.033609	-5.188889	 0.308190	 3.541030	-5.234859	 0.342567	 0.430617	 2.114456	 23.577840	-6.789448	-6.299415	-19.545080	-0.831833	 92.281580	 61.690290	-174.036700	-4.482770	 17.125550	 6.481176	-21.286290	-7.200352	 27.326230	-6.072669	-11.774310	 6.805868	 1.803333	 3.979147	-15.098590	 4.898592	 3.004813	-9.310344	 5.224449	 0.395017	 2.014677
